<?xml version="1.0" encoding="UTF-8"?>
<svg id="Layer_2" data-name="Layer 2" xmlns="http://www.w3.org/2000/svg" version="1.1" viewBox="0 0 1926.9 1090.3">
  <defs>
    <style>
      .cls-1 {
        fill: #fc3030;
      }

      .cls-1, .cls-2, .cls-3, .cls-4 {
        stroke-width: 0px;
      }

      .cls-2 {
        display: none;
        fill: #000;
      }

      .cls-3 {
        fill: #c40000;
      }

      .cls-4 {
        fill: #fff;
      }
    </style>
  </defs>
  <g id="Layer_1-2" data-name="Layer 1-2">
    <g>
      <g>
        <g>
          <path class="cls-4" d="M507.4,581.2v-162.5h34.7l3.6,30.5c3.9-7.1,8.7-13.2,14.4-18.3,5.7-5.1,12.4-9,20.1-11.8,7.7-2.8,16.3-4.2,25.8-4.2v41.2h-12.3c-6.7,0-13,.8-18.8,2.4s-10.9,4.2-15.2,7.8c-4.3,3.6-7.6,8.5-9.9,14.8-2.3,6.3-3.4,14.1-3.4,23.4v76.9h-38.9Z"/>
          <path class="cls-4" d="M689.6,585c-13.4,0-24.5-2.2-33.4-6.7-8.9-4.4-15.5-10.4-19.8-18-4.3-7.6-6.5-15.8-6.5-24.7s2.7-19.3,8-26.8c5.3-7.5,13.1-13.3,23.5-17.5,10.4-4.2,23.1-6.3,38.3-6.3h41.2c0-8.6-1.2-15.8-3.6-21.4s-6.1-9.8-11.2-12.6-11.4-4.2-19-4.2-16.8,2.1-23.2,6.2c-6.4,4.1-10.2,10.2-11.5,18.2h-38.3c1.1-11.7,5-21.7,11.7-30,6.7-8.3,15.4-14.8,26.1-19.5,10.7-4.6,22.4-7,35.2-7s28.4,2.6,39.2,8c10.8,5.3,19.1,12.9,24.8,22.7,5.7,9.8,8.6,21.7,8.6,35.5v100.2h-33.1l-3.9-25.9c-2.2,4.1-4.9,8-8.3,11.7-3.3,3.7-7.2,6.9-11.5,9.6-4.3,2.7-9.2,4.8-14.8,6.3-5.5,1.5-11.7,2.3-18.7,2.3h0ZM698.4,554.2c6.3,0,11.9-1.1,16.9-3.4,5-2.3,9.2-5.5,12.7-9.6,3.5-4.1,6.2-8.8,8.1-14.1s3.2-10.8,3.9-16.4v-.6h-36c-7.8,0-14.1,1-19,2.9s-8.4,4.6-10.7,8c-2.3,3.3-3.4,7.3-3.4,11.8s1.1,8.4,3.4,11.7c2.3,3.2,5.5,5.7,9.6,7.3,4.1,1.6,9,2.4,14.6,2.4h0Z"/>
          <path class="cls-4" d="M816.8,652.5v-233.8h34.7l4.2,23.7c3.5-4.8,7.6-9.2,12.5-13.5,4.9-4.2,10.8-7.6,17.7-10.2,6.9-2.6,15-3.9,24.3-3.9,15.3,0,28.9,3.7,40.7,11.2,11.8,7.5,21.1,17.6,27.9,30.5s10.2,27.5,10.2,43.9-3.5,30.7-10.4,43.5-16.3,22.8-28,30.2c-11.8,7.3-25.2,11-40.4,11s-23.1-2.3-32.4-7c-9.3-4.7-16.7-11.3-22-19.9v94.4h-38.9ZM902.1,551.3c9.1,0,17.2-2.2,24.3-6.5,7.1-4.3,12.8-10.3,16.9-18,4.1-7.7,6.2-16.6,6.2-26.8s-2.1-19.1-6.2-26.8c-4.1-7.7-9.7-13.7-16.9-18-7.1-4.3-15.2-6.5-24.3-6.5s-17.5,2.2-24.7,6.5-12.7,10.3-16.5,18c-3.9,7.7-5.8,16.6-5.8,26.8s2,18.8,5.8,26.6,9.4,13.8,16.5,18.2c7.1,4.3,15.3,6.5,24.7,6.5Z"/>
          <path class="cls-4" d="M1029.2,652.5l39.9-89.5h-9.7l-65.2-144.3h42.2l49,110.3,46.1-110.3h41.2l-102.5,233.8h-40.9Z"/>
          <path class="cls-4" d="M1259.5,585c-15.3,0-28.9-3.7-40.7-11-11.8-7.3-21.1-17.5-27.9-30.3s-10.2-27.5-10.2-43.9,3.4-30.8,10.2-43.6c6.8-12.9,16.2-23,28.2-30.3,12-7.4,25.7-11,41-11s22.8,2.4,32.1,7.1c9.3,4.8,16.5,11.4,21.7,19.8v-94h38.9v233.5h-34.7l-3.9-23.7c-3.5,4.8-7.7,9.2-12.7,13.5-5,4.2-10.9,7.6-17.8,10.2-6.9,2.6-15,3.9-24.3,3.9h0ZM1267.6,551.3c9.3,0,17.5-2.2,24.5-6.7,7-4.4,12.5-10.5,16.5-18.2s6-16.5,6-26.4-2-19.1-6-26.8c-4-7.7-9.6-13.7-16.7-18-7.1-4.3-15.3-6.5-24.7-6.5s-16.9,2.2-24,6.5-12.7,10.3-16.7,18c-4,7.7-6,16.5-6,26.4s2,19.1,6,26.8,9.6,13.7,16.7,18.2,15.2,6.7,24.3,6.7Z"/>
          <g>
            <path class="cls-4" d="M1510.5,483.7c-.1.2-.2.3-.4.5h.4c0-.2,0-.3,0-.5Z"/>
            <path class="cls-4" d="M1539.9,454c-6.6-11.9-15.8-21.4-27.7-28.5-11.9-7.1-25.8-10.7-41.8-10.7s-30.9,3.7-43.3,11c-12.4,7.4-22.1,17.5-29,30.3-6.9,12.9-10.4,27.9-10.4,44.9s3.5,31.3,10.5,43.9c7,12.7,16.8,22.5,29.2,29.5,12.4,7,26.6,10.5,42.6,10.5s24.5-2.4,34.6-7.1c10-4.8,18.6-11.2,25.6-19.3,7-8.1,11.9-17.1,14.8-27.1h-39.2c-3,6.5-7.5,11.7-13.5,15.6-5.9,3.9-13.4,5.8-22.5,5.8s-15.6-1.9-22.2-5.7c-6.6-3.8-11.8-9.3-15.7-16.5-3.2-6-5.2-13.1-5.7-21.2h123.1c.2-3,.4-5.8.5-8.4.1-2.6.2-5,.2-7.1,0-14.7-3.3-28-9.9-39.9h0ZM1479.6,444.1c.7.2,1.2.4,1.5.5,3.2,1.2,5.8,2.9,8.1,4.7,5.5,4.4,8.3,9.6,9.2,11.2,1.9,0,3.7.4,5.3,1,6,2.3,9.8,8.5,9.3,14.4-.2,2.3-1.1,4.6-2.5,6.5,0,.2,0,.3,0,.5h-.4c-2.1,2.7-5.2,4.6-8.9,5.3h-63.4c-.9-.2-1.7-.4-2.6-.8-2.6-1-4.7-2.6-6.3-4.6-.7-.9-1.3-1.9-1.8-2.9-.4-.9-.7-1.8-.9-2.8-.1-.4-.2-.9-.2-1.3-.4-5.5,3.2-11.3,8.9-13.7,2-.9,4.3-1.3,6.8-1.2.9-1.9,3.6-7.1,9.1-11.6,1.8-1.5,4-2.9,6.5-4.1,1.1-.5,2.1-.9,3.1-1.2,8.4-2.8,15.8-1.1,19.2,0h0Z"/>
          </g>
          <path class="cls-4" d="M1586.4,581.2v-162.5h34.7l3.6,30.5c3.9-7.1,8.7-13.2,14.4-18.3,5.7-5.1,12.4-9,20.1-11.8,7.7-2.8,16.3-4.2,25.8-4.2v41.2h-12.3c-6.7,0-13,.8-18.8,2.4-5.8,1.6-10.9,4.2-15.2,7.8-4.3,3.6-7.6,8.5-9.9,14.8-2.3,6.3-3.4,14.1-3.4,23.4v76.9h-38.9,0Z"/>
        </g>
        <g>
          <g>
            <path class="cls-3" d="M254.2,641.8c0-25.1,0-50.3,0-75.4-4.1,0-8.2,0-12.2,0v87.7c24.4,0,48.8.1,73.2.2,4,0,8.1,0,12.1,0,0-4.2,0-8.3,0-12.5h-73Z"/>
            <path class="cls-1" d="M327.1,641.8h0v-75.5c-24.4,0-48.7,0-73,0h0c0,25.2,0,50.3,0,75.4h73Z"/>
          </g>
          <g>
            <path class="cls-3" d="M411.9,470v6.4h0c-36.1,0-72.3,0-108.4,0,0-4.4,0-8.9,0-13.3h108.4c0,2.6,0,4.8,0,6.9h0Z"/>
            <path class="cls-3" d="M462.3,516.4c-16.8,14-33.6,27.9-50.5,41.9,0,0,0,9.9,0,9.9,0,1.7,0,8.5,0,10.3h0c16.8-13.8,33.7-27.7,50.5-41.6,0-32.7,0-65.5,0-98.2v77.7h0Z"/>
            <path class="cls-1" d="M436.8,544.6c8.5-7.1,17.1-14.1,25.5-21v-104.9c-16.8,0-33.5.1-50.3.2h-44.4c0-.1-19.7-.2-19.7-.2-14.6,14.6-29.2,29.3-43.8,43.9l-.4.4-.3.3h108.4v10.3h0v91.8h0c8.2-6.8,16.5-13.8,24.9-20.8h0Z"/>
          </g>
          <g>
            <path class="cls-3" d="M345.8,549.1h0c-33.8,0-67.7,0-101.5,0,0-4.1,0-8.3,0-12.5h101.5v6.4c0,2,0,4,0,6h0Z"/>
            <path class="cls-3" d="M393,586.5c-15.8,13.1-31.5,26.2-47.3,39.2,0,0,0,9.3,0,9.2,0,1.5,0,8,0,9.6h0c15.8-13,31.5-26,47.3-38.9,0-30.7,0-61.3,0-92v72.8h0Z"/>
            <path class="cls-1" d="M369.1,613c8-6.7,16-13.2,23.9-19.7v-98.2c-15.7,0-31.4.1-47.1.2h-41.6c0-.1-18.5-.2-18.5-.2-13.7,13.7-27.4,27.4-41.1,41.1l-.4.3-.3.3h101.5v9.6h0v86h0c7.7-6.4,15.5-12.9,23.4-19.5h0Z"/>
          </g>
        </g>
        <g>
          <path class="cls-4" d="M1125.8,650.1c-2-.9-3.6-2.2-4.7-3.8-1.1-1.6-1.7-3.5-1.8-5.6h5.4c.2,1.8.9,3.3,2.2,4.6,1.3,1.2,3.2,1.8,5.7,1.8s4.3-.6,5.7-1.8,2.1-2.7,2.1-4.6-.4-2.7-1.2-3.6c-.8-.9-1.8-1.6-3-2.1s-2.9-1-4.9-1.5c-2.6-.7-4.6-1.3-6.1-2s-2.8-1.7-3.9-3.1c-1.1-1.4-1.6-3.3-1.6-5.7s.5-4,1.6-5.6,2.6-2.9,4.5-3.8,4.2-1.3,6.7-1.3c3.6,0,6.6.9,8.9,2.7,2.3,1.8,3.6,4.2,3.9,7.2h-5.5c-.2-1.5-1-2.8-2.3-3.9-1.4-1.1-3.2-1.7-5.4-1.7s-3.8.5-5.2,1.6c-1.3,1.1-2,2.6-2,4.6s.4,2.5,1.2,3.4c.8.9,1.8,1.6,2.9,2s2.8,1,4.9,1.6c2.6.7,4.6,1.4,6.1,2.1s2.9,1.7,4,3.2c1.1,1.4,1.7,3.3,1.7,5.8s-.5,3.7-1.5,5.3c-1,1.7-2.5,3-4.4,4-2,1-4.3,1.5-6.9,1.5s-4.8-.5-6.8-1.4h0Z"/>
          <path class="cls-4" d="M1158.4,649.6c-2.3-1.3-4.1-3.1-5.4-5.5s-2-5.1-2-8.3.7-5.8,2-8.2c1.3-2.4,3.2-4.2,5.5-5.5,2.3-1.3,4.9-1.9,7.8-1.9s5.5.6,7.8,1.9c2.3,1.3,4.2,3.1,5.5,5.5s2,5.1,2,8.2-.7,5.9-2.1,8.3c-1.4,2.4-3.3,4.2-5.6,5.5-2.4,1.3-5,1.9-7.9,1.9s-5.4-.7-7.7-1.9h0ZM1171.2,645.9c1.6-.8,2.9-2.1,3.8-3.8s1.5-3.8,1.5-6.2-.5-4.5-1.4-6.2-2.2-3-3.8-3.8c-1.6-.8-3.2-1.2-5-1.2s-3.5.4-5.1,1.2c-1.5.8-2.8,2.1-3.7,3.8-.9,1.7-1.4,3.8-1.4,6.2s.4,4.6,1.4,6.2c.9,1.7,2.1,3,3.6,3.8,1.5.8,3.2,1.2,5,1.2s3.5-.4,5.1-1.3h0Z"/>
          <path class="cls-4" d="M1193.4,610.1v41h-5v-41h5Z"/>
          <path class="cls-4" d="M1228.9,620.8v30.3h-5v-4.5c-1,1.5-2.3,2.8-4,3.6-1.7.9-3.6,1.3-5.7,1.3s-4.5-.5-6.4-1.5-3.4-2.4-4.4-4.4c-1.1-2-1.6-4.3-1.6-7.1v-17.8h5v17.1c0,3,.8,5.3,2.3,6.9,1.5,1.6,3.6,2.4,6.2,2.4s4.8-.8,6.4-2.5c1.6-1.7,2.3-4.1,2.3-7.2v-16.7h5,0Z"/>
          <path class="cls-4" d="M1243.5,624.9v17.9c0,1.5.3,2.5.9,3.1.6.6,1.7.9,3.3.9h3.7v4.3h-4.5c-2.8,0-4.9-.7-6.3-1.9s-2.1-3.4-2.1-6.4v-17.9h-3.9v-4.2h3.9v-7.6h5v7.6h7.9v4.2h-7.9,0Z"/>
          <path class="cls-4" d="M1257.7,614.8c-.7-.7-1-1.5-1-2.4s.3-1.8,1-2.4,1.5-1,2.4-1,1.7.3,2.3,1,1,1.5,1,2.4-.3,1.8-1,2.4-1.4,1-2.3,1-1.8-.3-2.4-1ZM1262.6,620.8v30.3h-5v-30.3h5Z"/>
          <path class="cls-4" d="M1276.6,649.6c-2.3-1.3-4.1-3.1-5.4-5.5s-2-5.1-2-8.3.7-5.8,2-8.2c1.3-2.4,3.2-4.2,5.5-5.5,2.3-1.3,4.9-1.9,7.8-1.9s5.5.6,7.8,1.9c2.3,1.3,4.2,3.1,5.5,5.5s2,5.1,2,8.2-.7,5.9-2.1,8.3c-1.4,2.4-3.3,4.2-5.6,5.5s-5,1.9-7.9,1.9-5.4-.7-7.7-1.9h0ZM1289.4,645.9c1.6-.8,2.9-2.1,3.8-3.8s1.5-3.8,1.5-6.2-.5-4.5-1.4-6.2-2.2-3-3.8-3.8c-1.6-.8-3.2-1.2-5-1.2s-3.5.4-5.1,1.2c-1.5.8-2.8,2.1-3.7,3.8-.9,1.7-1.4,3.8-1.4,6.2s.4,4.6,1.4,6.2c.9,1.7,2.1,3,3.6,3.8,1.5.8,3.2,1.2,5,1.2s3.5-.4,5.1-1.3h0Z"/>
          <path class="cls-4" d="M1330.3,623.5c2.3,2.2,3.4,5.5,3.4,9.7v17.9h-5v-17.2c0-3-.8-5.3-2.3-6.9-1.5-1.6-3.6-2.4-6.2-2.4s-4.8.8-6.3,2.5-2.3,4.1-2.3,7.2v16.8h-5v-30.3h5v4.3c1-1.5,2.3-2.8,4.1-3.6s3.6-1.3,5.7-1.3c3.7,0,6.7,1.1,9,3.3h0Z"/>
          <path class="cls-4" d="M1346.4,650.4c-1.8-.8-3.3-1.9-4.4-3.3s-1.7-3-1.8-4.9h5.2c.2,1.5.9,2.8,2.1,3.7s2.9,1.4,5,1.4,3.4-.4,4.5-1.3c1.1-.8,1.7-1.9,1.7-3.2s-.6-2.3-1.8-3-3-1.3-5.5-1.9c-2.2-.6-4.1-1.2-5.5-1.8s-2.6-1.5-3.7-2.7c-1-1.2-1.5-2.8-1.5-4.7s.5-3,1.4-4.3c.9-1.3,2.2-2.3,3.9-3.1,1.7-.8,3.6-1.1,5.8-1.1,3.4,0,6.1.8,8.1,2.5,2.1,1.7,3.2,4,3.3,7h-5c-.1-1.6-.8-2.9-1.9-3.8s-2.7-1.4-4.7-1.4-3.2.4-4.3,1.2c-1.1.8-1.6,1.8-1.6,3s.3,1.8,1,2.5c.7.7,1.5,1.2,2.4,1.5s2.3.8,4.1,1.3c2.2.6,3.9,1.2,5.3,1.7,1.4.6,2.5,1.4,3.5,2.6s1.5,2.6,1.5,4.5c0,1.7-.5,3.2-1.4,4.5s-2.2,2.4-3.9,3.1-3.6,1.1-5.8,1.1-4.4-.4-6.2-1.2h0Z"/>
          <path class="cls-4" d="M1376.1,644.1l-6.2,14.9h-3.4l4-14.9h5.5,0Z"/>
          <path class="cls-4" d="M1402,650.1c-2-.9-3.6-2.2-4.7-3.8-1.1-1.6-1.7-3.5-1.8-5.6h5.4c.2,1.8.9,3.3,2.2,4.6,1.3,1.2,3.2,1.8,5.7,1.8s4.3-.6,5.7-1.8,2.1-2.7,2.1-4.6-.4-2.7-1.2-3.6c-.8-.9-1.8-1.6-3-2.1s-2.9-1-4.9-1.5c-2.6-.7-4.6-1.3-6.1-2s-2.8-1.7-3.9-3.1c-1.1-1.4-1.6-3.3-1.6-5.7s.5-4,1.6-5.6,2.6-2.9,4.5-3.8,4.2-1.3,6.7-1.3c3.6,0,6.6.9,8.9,2.7,2.3,1.8,3.6,4.2,3.9,7.2h-5.5c-.2-1.5-1-2.8-2.3-3.9-1.4-1.1-3.2-1.7-5.4-1.7s-3.8.5-5.2,1.6c-1.3,1.1-2,2.6-2,4.6s.4,2.5,1.2,3.4c.8.9,1.8,1.6,2.9,2s2.8,1,4.9,1.6c2.6.7,4.6,1.4,6.1,2.1s2.9,1.7,4,3.2c1.1,1.4,1.7,3.3,1.7,5.8s-.5,3.7-1.5,5.3c-1,1.7-2.5,3-4.4,4-2,1-4.3,1.5-6.9,1.5s-4.8-.5-6.8-1.4h0Z"/>
          <path class="cls-4" d="M1429.2,614.8c-.7-.7-1-1.5-1-2.4s.3-1.8,1-2.4,1.5-1,2.4-1,1.7.3,2.3,1,1,1.5,1,2.4-.3,1.8-1,2.4-1.4,1-2.3,1-1.8-.3-2.4-1ZM1434.1,620.8v30.3h-5v-30.3h5Z"/>
          <path class="cls-4" d="M1485.4,621.7c1.8,1,3.3,2.4,4.4,4.4s1.6,4.3,1.6,7.1v17.9h-5v-17.2c0-3-.8-5.3-2.2-6.9-1.5-1.6-3.5-2.4-6.1-2.4s-4.7.8-6.2,2.5-2.3,4.1-2.3,7.3v16.7h-5v-17.2c0-3-.8-5.3-2.2-6.9-1.5-1.6-3.5-2.4-6.1-2.4s-4.7.8-6.2,2.5-2.3,4.1-2.3,7.3v16.7h-5v-30.3h5v4.4c1-1.6,2.3-2.8,4-3.7,1.7-.8,3.5-1.3,5.6-1.3s4.8.6,6.8,1.7c2,1.1,3.4,2.8,4.4,5,.8-2.1,2.2-3.8,4.2-5,2-1.2,4.1-1.8,6.5-1.8s4.5.5,6.3,1.5h0Z"/>
          <path class="cls-4" d="M1509.2,622c2-1.2,4.3-1.7,6.9-1.7s5.1.7,7.3,1.9,3.9,3.1,5.2,5.5,1.9,5.1,1.9,8.2-.6,5.8-1.9,8.2-3,4.3-5.2,5.6c-2.2,1.3-4.6,2-7.3,2s-4.9-.6-6.8-1.7-3.5-2.6-4.5-4.3v20h-5v-44.7h5v5.6c1-1.7,2.5-3.2,4.4-4.3h0ZM1523.9,629.8c-.9-1.7-2.2-3-3.7-3.9s-3.3-1.3-5.2-1.3-3.6.5-5.1,1.4c-1.6.9-2.8,2.2-3.8,3.9-.9,1.7-1.4,3.7-1.4,6s.5,4.3,1.4,6c.9,1.7,2.2,3,3.8,3.9,1.6.9,3.3,1.4,5.1,1.4s3.6-.5,5.2-1.4,2.8-2.2,3.7-3.9c.9-1.7,1.4-3.7,1.4-6.1s-.5-4.3-1.4-6Z"/>
          <path class="cls-4" d="M1542.1,610.1v41h-5v-41h5Z"/>
          <path class="cls-4" d="M1550.9,614.8c-.7-.7-1-1.5-1-2.4s.3-1.8,1-2.4,1.5-1,2.4-1,1.7.3,2.3,1,1,1.5,1,2.4-.3,1.8-1,2.4-1.4,1-2.3,1-1.8-.3-2.4-1ZM1555.7,620.8v30.3h-5v-30.3h5Z"/>
          <path class="cls-4" d="M1576.6,624.9h-6.4v26.2h-5v-26.2h-3.9v-4.2h3.9v-2.2c0-3.4.9-5.9,2.6-7.4s4.6-2.3,8.4-2.3v4.2c-2.2,0-3.8.4-4.7,1.3s-1.4,2.3-1.4,4.3v2.2h6.4v4.2h0Z"/>
          <path class="cls-4" d="M1582.7,614.8c-.7-.7-1-1.5-1-2.4s.3-1.8,1-2.4,1.5-1,2.4-1,1.7.3,2.3,1,1,1.5,1,2.4-.3,1.8-1,2.4-1.4,1-2.3,1-1.8-.3-2.4-1ZM1587.5,620.8v30.3h-5v-30.3h5Z"/>
          <path class="cls-4" d="M1623.6,637.8h-24.2c.2,3,1.2,5.3,3.1,7s4.1,2.5,6.8,2.5,4-.5,5.4-1.5,2.5-2.4,3.1-4.1h5.4c-.8,2.9-2.4,5.3-4.9,7.1-2.4,1.8-5.5,2.7-9.1,2.7s-5.4-.7-7.7-1.9-4.1-3.1-5.3-5.5c-1.3-2.4-1.9-5.1-1.9-8.3s.6-5.9,1.9-8.2,3-4.2,5.3-5.5,4.9-1.9,7.8-1.9,5.4.6,7.6,1.9c2.2,1.3,3.9,3,5.1,5.2,1.2,2.2,1.8,4.7,1.8,7.4s0,2-.2,3h0ZM1617.3,628.8c-.8-1.4-2-2.4-3.5-3.2-1.5-.7-3.1-1.1-4.8-1.1-2.6,0-4.7.8-6.5,2.4-1.8,1.6-2.8,3.9-3.1,6.8h19.2c0-1.9-.4-3.6-1.3-5h0Z"/>
          <path class="cls-4" d="M1630.4,627.6c1.2-2.3,3-4.2,5.2-5.5,2.2-1.3,4.7-1.9,7.4-1.9s4.6.5,6.6,1.6c2,1.1,3.6,2.5,4.7,4.3v-16h5.1v41h-5.1v-5.7c-1,1.8-2.5,3.3-4.4,4.5-2,1.2-4.2,1.7-6.9,1.7s-5.1-.7-7.3-2c-2.2-1.3-3.9-3.2-5.2-5.6s-1.9-5.1-1.9-8.2.6-5.8,1.9-8.2h0ZM1652.8,629.9c-.9-1.7-2.2-3-3.7-3.9-1.6-.9-3.3-1.4-5.2-1.4s-3.6.4-5.2,1.3-2.8,2.2-3.7,3.9c-.9,1.7-1.4,3.7-1.4,6s.5,4.3,1.4,6.1,2.2,3,3.7,3.9,3.3,1.4,5.2,1.4,3.6-.5,5.2-1.4c1.6-.9,2.8-2.2,3.7-3.9.9-1.7,1.4-3.7,1.4-6s-.5-4.3-1.4-6Z"/>
          <path class="cls-4" d="M1667,650.4c-.7-.7-1-1.5-1-2.4s.3-1.8,1-2.4c.7-.7,1.5-1,2.4-1s1.7.3,2.3,1c.6.7,1,1.5,1,2.4s-.3,1.8-1,2.4c-.7.7-1.4,1-2.3,1s-1.8-.3-2.4-1Z"/>
        </g>
      </g>
    </g>
  </g>
</svg>